<svg xmlns="http://www.w3.org/2000/svg" contentStyleType="text/css"
     height="550px" preserveAspectRatio="none" style="width:1152px;height:550px;background:#FFFFFF;" version="1.1"
     viewBox="0 0 1152 550" width="1152px" zoomAndPan="magnify">
    <defs/>
    <g><!--cluster netzgrafikeditor.converter-->
        <g id="cluster_netzgrafikeditor.converter">
            <path d="M8.5,6 L219.7256,6 A3.75,3.75 0 0 1 222.2256,8.5 L229.2256,28.2969 L1142.5,28.2969 A2.5,2.5 0 0 1 1145,30.7969 L1145,540.73 A2.5,2.5 0 0 1 1142.5,543.23 L8.5,543.23 A2.5,2.5 0 0 1 6,540.73 L6,8.5 A2.5,2.5 0 0 1 8.5,6 "
                  fill="none" style="stroke:#000000;stroke-width:1.5;"/>
            <line style="stroke:#000000;stroke-width:1.5;" x1="6" x2="229.2256" y1="28.2969" y2="28.2969"/>
            <text fill="#000000" font-family="sans-serif" font-size="14" font-weight="bold" lengthAdjust="spacing"
                  textLength="210.2256" x="10" y="20.9951">netzgrafikeditor.converter
            </text>
        </g><!--cluster supply-->
        <g id="cluster_supply">
            <path d="M32.5,322.45 L85.7676,322.45 A3.75,3.75 0 0 1 88.2676,324.95 L95.2676,344.7469 L1118.5,344.7469 A2.5,2.5 0 0 1 1121,347.2469 L1121,516.73 A2.5,2.5 0 0 1 1118.5,519.23 L32.5,519.23 A2.5,2.5 0 0 1 30,516.73 L30,324.95 A2.5,2.5 0 0 1 32.5,322.45 "
                  fill="none" style="stroke:#000000;stroke-width:1.5;"/>
            <line style="stroke:#000000;stroke-width:1.5;" x1="30" x2="95.2676" y1="344.7469" y2="344.7469"/>
            <text fill="#000000" font-family="sans-serif" font-size="14" font-weight="bold" lengthAdjust="spacing"
                  textLength="52.2676" x="34" y="337.4451">supply
            </text>
        </g><!--cluster matsim-->
        <g id="cluster_matsim">
            <path d="M444.5,168.3 L503.9473,168.3 A3.75,3.75 0 0 1 506.4473,170.8 L513.4473,190.5969 L651.5,190.5969 A2.5,2.5 0 0 1 654,193.0969 L654,264.8 A2.5,2.5 0 0 1 651.5,267.3 L444.5,267.3 A2.5,2.5 0 0 1 442,264.8 L442,170.8 A2.5,2.5 0 0 1 444.5,168.3 "
                  fill="none" style="stroke:#000000;stroke-width:1.5;"/>
            <line style="stroke:#000000;stroke-width:1.5;" x1="442" x2="513.4473" y1="190.5969" y2="190.5969"/>
            <text fill="#000000" font-family="sans-serif" font-size="14" font-weight="bold" lengthAdjust="spacing"
                  textLength="58.4473" x="446" y="183.2951">matsim
            </text>
        </g><!--class NetzgrafikConverter-->
        <g id="elem_NetzgrafikConverter">
            <rect codeLine="5" fill="#F1F1F1" height="64.2969" id="NetzgrafikConverter" rx="2.5" ry="2.5"
                  style="stroke:#181818;stroke-width:0.5;" width="173.7979" x="650.1" y="41"/>
            <ellipse cx="665.1" cy="57" fill="#ADD1B2" rx="11" ry="11" style="stroke:#181818;stroke-width:1.0;"/>
            <path d="M668.0688,62.6406 Q667.4906,62.9375 666.85,63.0781 Q666.2094,63.2344 665.5063,63.2344 Q663.0063,63.2344 661.6781,61.5938 Q660.3656,59.9375 660.3656,56.8125 Q660.3656,53.6875 661.6781,52.0313 Q663.0063,50.375 665.5063,50.375 Q666.2094,50.375 666.85,50.5313 Q667.5063,50.6875 668.0688,50.9844 L668.0688,53.7031 Q667.4438,53.125 666.85,52.8594 Q666.2563,52.5781 665.6313,52.5781 Q664.2875,52.5781 663.6,53.6563 Q662.9125,54.7188 662.9125,56.8125 Q662.9125,58.9063 663.6,59.9844 Q664.2875,61.0469 665.6313,61.0469 Q666.2563,61.0469 666.85,60.7813 Q667.4438,60.5 668.0688,59.9219 L668.0688,62.6406 Z "
                  fill="#000000"/>
            <text fill="#000000" font-family="sans-serif" font-size="14" lengthAdjust="spacing" textLength="141.7979"
                  x="679.1" y="61.8467">NetzgrafikConverter
            </text>
            <line style="stroke:#181818;stroke-width:0.5;" x1="651.1" x2="822.8979" y1="73" y2="73"/>
            <line style="stroke:#181818;stroke-width:0.5;" x1="651.1" x2="822.8979" y1="81" y2="81"/>
            <ellipse cx="661.1" cy="94.6484" fill="#84BE84" rx="3" ry="3" style="stroke:#038048;stroke-width:1.0;"/>
            <text fill="#000000" font-family="sans-serif" font-size="14" lengthAdjust="spacing" textLength="34.4258"
                  x="670.1" y="97.9951">run()
            </text>
        </g><!--class NetzgrafikConverterConfig-->
        <g id="elem_NetzgrafikConverterConfig">
            <rect codeLine="9" fill="#F1F1F1" height="48" id="NetzgrafikConverterConfig" rx="2.5" ry="2.5"
                  style="stroke:#181818;stroke-width:0.5;" width="218.7168" x="882.64" y="49.15"/>
            <ellipse cx="897.64" cy="65.15" fill="#ADD1B2" rx="11" ry="11" style="stroke:#181818;stroke-width:1.0;"/>
            <path d="M900.6088,70.7906 Q900.0306,71.0875 899.39,71.2281 Q898.7494,71.3844 898.0463,71.3844 Q895.5463,71.3844 894.2181,69.7438 Q892.9056,68.0875 892.9056,64.9625 Q892.9056,61.8375 894.2181,60.1813 Q895.5463,58.525 898.0463,58.525 Q898.7494,58.525 899.39,58.6813 Q900.0463,58.8375 900.6088,59.1344 L900.6088,61.8531 Q899.9838,61.275 899.39,61.0094 Q898.7963,60.7281 898.1713,60.7281 Q896.8275,60.7281 896.14,61.8063 Q895.4525,62.8688 895.4525,64.9625 Q895.4525,67.0563 896.14,68.1344 Q896.8275,69.1969 898.1713,69.1969 Q898.7963,69.1969 899.39,68.9313 Q899.9838,68.65 900.6088,68.0719 L900.6088,70.7906 Z "
                  fill="#000000"/>
            <text fill="#000000" font-family="sans-serif" font-size="14" lengthAdjust="spacing" textLength="186.7168"
                  x="911.64" y="69.9967">NetzgrafikConverterConfig
            </text>
            <line style="stroke:#181818;stroke-width:0.5;" x1="883.64" x2="1100.3568" y1="81.15" y2="81.15"/>
            <line style="stroke:#181818;stroke-width:0.5;" x1="883.64" x2="1100.3568" y1="89.15" y2="89.15"/>
        </g><!--class NetworkGraphicSource-->
        <g id="elem_NetworkGraphicSource">
            <rect codeLine="12" fill="#F1F1F1" height="64.2969" id="NetworkGraphicSource" rx="2.5" ry="2.5"
                  style="stroke:#181818;stroke-width:0.5;" width="193.376" x="769.31" y="195.15"/>
            <ellipse cx="784.31" cy="211.15" fill="#B4A7E5" rx="11" ry="11" style="stroke:#181818;stroke-width:1.0;"/>
            <path d="M780.2319,206.9156 L780.2319,204.7594 L787.6225,204.7594 L787.6225,206.9156 L785.1538,206.9156 L785.1538,214.9938 L787.6225,214.9938 L787.6225,217.15 L780.2319,217.15 L780.2319,214.9938 L782.7006,214.9938 L782.7006,206.9156 L780.2319,206.9156 Z "
                  fill="#000000"/>
            <text fill="#000000" font-family="sans-serif" font-size="14" font-style="italic" lengthAdjust="spacing"
                  textLength="161.376" x="798.31" y="215.9967">NetworkGraphicSource
            </text>
            <line style="stroke:#181818;stroke-width:0.5;" x1="770.31" x2="961.686" y1="227.15" y2="227.15"/>
            <line style="stroke:#181818;stroke-width:0.5;" x1="770.31" x2="961.686" y1="235.15" y2="235.15"/>
            <ellipse cx="780.31" cy="248.7984" fill="#84BE84" rx="3" ry="3" style="stroke:#038048;stroke-width:1.0;"/>
            <text fill="#000000" font-family="sans-serif" font-size="14" lengthAdjust="spacing" textLength="40.8447"
                  x="789.31" y="252.1451">load()
            </text>
        </g><!--class ConverterSink-->
        <g id="elem_ConverterSink">
            <rect codeLine="16" fill="#F1F1F1" height="64.2969" id="ConverterSink" rx="2.5" ry="2.5"
                  style="stroke:#181818;stroke-width:0.5;" width="131.4834" x="997.26" y="195.15"/>
            <ellipse cx="1012.26" cy="211.15" fill="#B4A7E5" rx="11" ry="11" style="stroke:#181818;stroke-width:1.0;"/>
            <path d="M1008.1819,206.9156 L1008.1819,204.7594 L1015.5725,204.7594 L1015.5725,206.9156 L1013.1038,206.9156 L1013.1038,214.9938 L1015.5725,214.9938 L1015.5725,217.15 L1008.1819,217.15 L1008.1819,214.9938 L1010.6506,214.9938 L1010.6506,206.9156 L1008.1819,206.9156 Z "
                  fill="#000000"/>
            <text fill="#000000" font-family="sans-serif" font-size="14" font-style="italic" lengthAdjust="spacing"
                  textLength="99.4834" x="1026.26" y="215.9967">ConverterSink
            </text>
            <line style="stroke:#181818;stroke-width:0.5;" x1="998.26" x2="1127.7434" y1="227.15" y2="227.15"/>
            <line style="stroke:#181818;stroke-width:0.5;" x1="998.26" x2="1127.7434" y1="235.15" y2="235.15"/>
            <ellipse cx="1008.26" cy="248.7984" fill="#84BE84" rx="3" ry="3" style="stroke:#038048;stroke-width:1.0;"/>
            <text fill="#000000" font-family="sans-serif" font-size="14" lengthAdjust="spacing" textLength="43.6953"
                  x="1017.26" y="252.1451">save()
            </text>
        </g><!--class SupplyBuilder-->
        <g id="elem_SupplyBuilder">
            <rect codeLine="21" fill="#F1F1F1" height="145.7813" id="SupplyBuilder" rx="2.5" ry="2.5"
                  style="stroke:#181818;stroke-width:0.5;" width="158.2275" x="946.89" y="357.45"/>
            <ellipse cx="974.9431" cy="373.45" fill="#B4A7E5" rx="11" ry="11" style="stroke:#181818;stroke-width:1.0;"/>
            <path d="M970.865,369.2156 L970.865,367.0594 L978.2556,367.0594 L978.2556,369.2156 L975.7868,369.2156 L975.7868,377.2938 L978.2556,377.2938 L978.2556,379.45 L970.865,379.45 L970.865,377.2938 L973.3337,377.2938 L973.3337,369.2156 L970.865,369.2156 Z "
                  fill="#000000"/>
            <text fill="#000000" font-family="sans-serif" font-size="14" font-style="italic" lengthAdjust="spacing"
                  textLength="97.2207" x="991.8438" y="378.2967">SupplyBuilder
            </text>
            <line style="stroke:#181818;stroke-width:0.5;" x1="947.89" x2="1104.1175" y1="389.45" y2="389.45"/>
            <line style="stroke:#181818;stroke-width:0.5;" x1="947.89" x2="1104.1175" y1="397.45" y2="397.45"/>
            <ellipse cx="957.89" cy="411.0984" fill="#84BE84" rx="3" ry="3" style="stroke:#038048;stroke-width:1.0;"/>
            <text fill="#000000" font-family="sans-serif" font-size="14" lengthAdjust="spacing" textLength="132.2275"
                  x="966.89" y="414.4451">addStopFacility(...)
            </text>
            <ellipse cx="957.89" cy="427.3953" fill="#84BE84" rx="3" ry="3" style="stroke:#038048;stroke-width:1.0;"/>
            <text fill="#000000" font-family="sans-serif" font-size="14" lengthAdjust="spacing" textLength="128.2354"
                  x="966.89" y="430.742">addTransitLine(...)
            </text>
            <ellipse cx="957.89" cy="443.6922" fill="#84BE84" rx="3" ry="3" style="stroke:#038048;stroke-width:1.0;"/>
            <text fill="#000000" font-family="sans-serif" font-size="14" lengthAdjust="spacing" textLength="123.7236"
                  x="966.89" y="447.0389">addRouteStop(...)
            </text>
            <ellipse cx="957.89" cy="459.9891" fill="#84BE84" rx="3" ry="3" style="stroke:#038048;stroke-width:1.0;"/>
            <text fill="#000000" font-family="sans-serif" font-size="14" lengthAdjust="spacing" textLength="123.5049"
                  x="966.89" y="463.3357">addRoutePass(...)
            </text>
            <ellipse cx="957.89" cy="476.2859" fill="#84BE84" rx="3" ry="3" style="stroke:#038048;stroke-width:1.0;"/>
            <text fill="#000000" font-family="sans-serif" font-size="14" lengthAdjust="spacing" textLength="121.9736"
                  x="966.89" y="479.6326">addDeparture(...)
            </text>
            <ellipse cx="957.89" cy="492.5828" fill="#84BE84" rx="3" ry="3" style="stroke:#038048;stroke-width:1.0;"/>
            <text fill="#000000" font-family="sans-serif" font-size="14" lengthAdjust="spacing" textLength="45.3496"
                  x="966.89" y="495.9295">build()
            </text>
        </g><!--class InfrastructureRepository-->
        <g id="elem_InfrastructureRepository">
            <rect codeLine="30" fill="#F1F1F1" height="80.5938" id="InfrastructureRepository" rx="2.5" ry="2.5"
                  style="stroke:#181818;stroke-width:0.5;" width="272.1279" x="45.94" y="390.04"/>
            <ellipse cx="92.1646" cy="406.04" fill="#B4A7E5" rx="11" ry="11" style="stroke:#181818;stroke-width:1.0;"/>
            <path d="M88.0865,401.8056 L88.0865,399.6494 L95.4771,399.6494 L95.4771,401.8056 L93.0084,401.8056 L93.0084,409.8838 L95.4771,409.8838 L95.4771,412.04 L88.0865,412.04 L88.0865,409.8838 L90.5552,409.8838 L90.5552,401.8056 L88.0865,401.8056 Z "
                  fill="#000000"/>
            <text fill="#000000" font-family="sans-serif" font-size="14" font-style="italic" lengthAdjust="spacing"
                  textLength="171.1787" x="112.6646" y="410.8867">InfrastructureRepository
            </text>
            <line style="stroke:#181818;stroke-width:0.5;" x1="46.94" x2="317.0679" y1="422.04" y2="422.04"/>
            <line style="stroke:#181818;stroke-width:0.5;" x1="46.94" x2="317.0679" y1="430.04" y2="430.04"/>
            <ellipse cx="56.94" cy="443.6884" fill="#84BE84" rx="3" ry="3" style="stroke:#038048;stroke-width:1.0;"/>
            <text fill="#000000" font-family="sans-serif" font-size="14" lengthAdjust="spacing" textLength="246.1279"
                  x="65.94" y="447.0351">getStopFacility(...): StopFacilityInfo
            </text>
            <ellipse cx="56.94" cy="459.9853" fill="#84BE84" rx="3" ry="3" style="stroke:#038048;stroke-width:1.0;"/>
            <text fill="#000000" font-family="sans-serif" font-size="14" lengthAdjust="spacing" textLength="244.7471"
                  x="65.94" y="463.332">getTrack(...): List&lt;TrackSegment&gt;
            </text>
        </g><!--class RollingStockRepository-->
        <g id="elem_RollingStockRepository">
            <rect codeLine="35" fill="#F1F1F1" height="64.2969" id="RollingStockRepository" rx="2.5" ry="2.5"
                  style="stroke:#181818;stroke-width:0.5;" width="279.9072" x="353.05" y="398.19"/>
            <ellipse cx="407.9836" cy="414.19" fill="#B4A7E5" rx="11" ry="11" style="stroke:#181818;stroke-width:1.0;"/>
            <path d="M403.9055,409.9556 L403.9055,407.7994 L411.2961,407.7994 L411.2961,409.9556 L408.8273,409.9556 L408.8273,418.0338 L411.2961,418.0338 L411.2961,420.19 L403.9055,420.19 L403.9055,418.0338 L406.3742,418.0338 L406.3742,409.9556 L403.9055,409.9556 Z "
                  fill="#000000"/>
            <text fill="#000000" font-family="sans-serif" font-size="14" font-style="italic" lengthAdjust="spacing"
                  textLength="161.54" x="428.4836" y="419.0367">RollingStockRepository
            </text>
            <line style="stroke:#181818;stroke-width:0.5;" x1="354.05" x2="631.9572" y1="430.19" y2="430.19"/>
            <line style="stroke:#181818;stroke-width:0.5;" x1="354.05" x2="631.9572" y1="438.19" y2="438.19"/>
            <ellipse cx="364.05" cy="451.8384" fill="#84BE84" rx="3" ry="3" style="stroke:#038048;stroke-width:1.0;"/>
            <text fill="#000000" font-family="sans-serif" font-size="14" lengthAdjust="spacing" textLength="253.9072"
                  x="373.05" y="455.1851">getVehicleType(...): VehicleTypeInfo
            </text>
        </g><!--class VehicleCircuitsPlanner-->
        <g id="elem_VehicleCircuitsPlanner">
            <rect codeLine="39" fill="#F1F1F1" height="80.5938" id="VehicleCircuitsPlanner" rx="2.5" ry="2.5"
                  style="stroke:#181818;stroke-width:0.5;" width="244.4219" x="667.79" y="390.04"/>
            <ellipse cx="707.8002" cy="406.04" fill="#B4A7E5" rx="11" ry="11" style="stroke:#181818;stroke-width:1.0;"/>
            <path d="M703.722,401.8056 L703.722,399.6494 L711.1127,399.6494 L711.1127,401.8056 L708.6439,401.8056 L708.6439,409.8838 L711.1127,409.8838 L711.1127,412.04 L703.722,412.04 L703.722,409.8838 L706.1908,409.8838 L706.1908,401.8056 L703.722,401.8056 Z "
                  fill="#000000"/>
            <text fill="#000000" font-family="sans-serif" font-size="14" font-style="italic" lengthAdjust="spacing"
                  textLength="156.8438" x="727.358" y="410.8867">VehicleCircuitsPlanner
            </text>
            <line style="stroke:#181818;stroke-width:0.5;" x1="668.79" x2="911.2119" y1="422.04" y2="422.04"/>
            <line style="stroke:#181818;stroke-width:0.5;" x1="668.79" x2="911.2119" y1="430.04" y2="430.04"/>
            <ellipse cx="678.79" cy="443.6884" fill="#84BE84" rx="3" ry="3" style="stroke:#038048;stroke-width:1.0;"/>
            <text fill="#000000" font-family="sans-serif" font-size="14" lengthAdjust="spacing" textLength="78.5723"
                  x="687.79" y="447.0351">register(...)
            </text>
            <ellipse cx="678.79" cy="459.9853" fill="#84BE84" rx="3" ry="3" style="stroke:#038048;stroke-width:1.0;"/>
            <text fill="#000000" font-family="sans-serif" font-size="14" lengthAdjust="spacing" textLength="218.4219"
                  x="687.79" y="463.332">plan(): List&lt;VehicleAllocation&gt;
            </text>
        </g><!--class MatsimSupplyBuilder-->
        <g id="elem_MatsimSupplyBuilder">
            <rect codeLine="46" fill="#F1F1F1" height="48" id="MatsimSupplyBuilder" rx="2.5" ry="2.5"
                  style="stroke:#181818;stroke-width:0.5;" width="180.1895" x="457.91" y="203.3"/>
            <ellipse cx="472.91" cy="219.3" fill="#ADD1B2" rx="11" ry="11" style="stroke:#181818;stroke-width:1.0;"/>
            <path d="M475.8788,224.9406 Q475.3006,225.2375 474.66,225.3781 Q474.0194,225.5344 473.3163,225.5344 Q470.8163,225.5344 469.4881,223.8938 Q468.1756,222.2375 468.1756,219.1125 Q468.1756,215.9875 469.4881,214.3313 Q470.8163,212.675 473.3163,212.675 Q474.0194,212.675 474.66,212.8313 Q475.3163,212.9875 475.8788,213.2844 L475.8788,216.0031 Q475.2538,215.425 474.66,215.1594 Q474.0663,214.8781 473.4413,214.8781 Q472.0975,214.8781 471.41,215.9563 Q470.7225,217.0188 470.7225,219.1125 Q470.7225,221.2063 471.41,222.2844 Q472.0975,223.3469 473.4413,223.3469 Q474.0663,223.3469 474.66,223.0813 Q475.2538,222.8 475.8788,222.2219 L475.8788,224.9406 Z "
                  fill="#000000"/>
            <text fill="#000000" font-family="sans-serif" font-size="14" lengthAdjust="spacing" textLength="148.1895"
                  x="486.91" y="224.1467">MatsimSupplyBuilder
            </text>
            <line style="stroke:#181818;stroke-width:0.5;" x1="458.91" x2="637.0995" y1="235.3" y2="235.3"/>
            <line style="stroke:#181818;stroke-width:0.5;" x1="458.91" x2="637.0995" y1="243.3" y2="243.3"/>
        </g><!--reverse link NetzgrafikConverter to NetzgrafikConverterConfig-->
        <g id="link_NetzgrafikConverter_NetzgrafikConverterConfig">
            <path codeLine="51" d="M836.04,73.15 C854.8,73.15 862.86,73.15 882.35,73.15 " fill="none"
                  id="NetzgrafikConverter-backto-NetzgrafikConverterConfig" style="stroke:#181818;stroke-width:1.0;"/>
            <polygon fill="#181818" points="824.04,73.15,830.04,77.15,836.04,73.15,830.04,69.15,824.04,73.15"
                     style="stroke:#181818;stroke-width:1.0;"/>
            <text fill="#000000" font-family="sans-serif" font-size="13" lengthAdjust="spacing" textLength="22.9785"
                  x="842.27" y="66.2169">has
            </text>
        </g><!--reverse link NetzgrafikConverter to NetworkGraphicSource-->
        <g id="link_NetzgrafikConverter_NetworkGraphicSource">
            <path codeLine="52" d="M771.4909,114.8325 C793.6309,140.9425 817.18,168.71 839.31,194.82 " fill="none"
                  id="NetzgrafikConverter-backto-NetworkGraphicSource" style="stroke:#181818;stroke-width:1.0;"/>
            <polygon fill="#181818"
                     points="763.73,105.68,764.5596,112.8432,771.4909,114.8325,770.6613,107.6693,763.73,105.68"
                     style="stroke:#181818;stroke-width:1.0;"/>
            <text fill="#000000" font-family="sans-serif" font-size="13" lengthAdjust="spacing" textLength="22.9785"
                  x="802" y="148.3669">has
            </text>
        </g><!--reverse link NetzgrafikConverter to SupplyBuilder-->
        <g id="link_NetzgrafikConverter_SupplyBuilder">
            <path codeLine="53"
                  d="M719.7551,117.0733 C704.0251,160.5233 688.52,227.43 728,275.3 C786.19,345.85 851.24,267.98 930,314.45 C948.24,325.21 964.6,340.77 978.43,356.97 "
                  fill="none" id="NetzgrafikConverter-backto-SupplyBuilder" style="stroke:#181818;stroke-width:1.0;"/>
            <polygon fill="#181818"
                     points="723.84,105.79,718.0365,110.0701,719.7551,117.0733,725.5587,112.7933,723.84,105.79"
                     style="stroke:#181818;stroke-width:1.0;"/>
            <text fill="#000000" font-family="sans-serif" font-size="13" lengthAdjust="spacing" textLength="22.9785"
                  x="729" y="231.8669">has
            </text>
        </g><!--reverse link NetzgrafikConverter to ConverterSink-->
        <g id="link_NetzgrafikConverter_ConverterSink">
            <path codeLine="54"
                  d="M835.8062,100.9367 C883.4562,115.4967 931.07,133.17 980,160.3 C997.23,169.85 1014.55,182.95 1028.89,194.96 "
                  fill="none" id="NetzgrafikConverter-backto-ConverterSink" style="stroke:#181818;stroke-width:1.0;"/>
            <polygon fill="#181818"
                     points="824.33,97.43,828.8992,103.0087,835.8062,100.9367,831.237,95.3579,824.33,97.43"
                     style="stroke:#181818;stroke-width:1.0;"/>
            <text fill="#000000" font-family="sans-serif" font-size="13" lengthAdjust="spacing" textLength="22.9785"
                  x="962" y="148.3669">has
            </text>
        </g><!--link NetzgrafikConverter to MatsimSupplyBuilder-->
        <g id="link_NetzgrafikConverter_MatsimSupplyBuilder">
            <path codeLine="55"
                  d="M675.84,105.65 C660.92,114.43 645.41,124.54 632,135.3 C606.68,155.62 585.8075,178.9847 569.8175,198.5447 "
                  fill="none" id="NetzgrafikConverter-to-MatsimSupplyBuilder"
                  style="stroke:#181818;stroke-width:1.0;stroke-dasharray:7.0,7.0;"/>
            <polygon fill="#181818"
                     points="566.02,203.19,574.8131,198.7537,569.1846,199.3189,568.6193,193.6903,566.02,203.19"
                     style="stroke:#181818;stroke-width:1.0;"/>
            <text fill="#000000" font-family="sans-serif" font-size="13" lengthAdjust="spacing" textLength="67.1011"
                  x="633" y="148.3669">&#171;runtime&#187;
            </text>
        </g><!--link MatsimSupplyBuilder to SupplyBuilder-->
        <g id="link_MatsimSupplyBuilder_SupplyBuilder">
            <path codeLine="57"
                  d="M559.68,251.46 C570.46,270.05 588.37,294.89 612,306.45 C643.75,321.98 898.17,299.08 930,314.45 C950.01,324.11 955.8403,326.3173 970.0703,343.3773 "
                  fill="none" id="MatsimSupplyBuilder-to-SupplyBuilder"
                  style="stroke:#181818;stroke-width:1.0;stroke-dasharray:7.0,7.0;"/>
            <polygon fill="none" points="981.6,357.2,974.6779,339.5341,965.4628,347.2206,981.6,357.2"
                     style="stroke:#181818;stroke-width:1.0;"/>
            <text fill="#000000" font-family="sans-serif" font-size="13" lengthAdjust="spacing" textLength="92.8154"
                  x="613" y="302.5169">&#171;implements&#187;
            </text>
        </g><!--reverse link MatsimSupplyBuilder to InfrastructureRepository-->
        <g id="link_MatsimSupplyBuilder_InfrastructureRepository">
            <path codeLine="58"
                  d="M466.3792,255.8419 C424.0892,271.1819 381.16,288.98 336,314.45 C297.65,336.08 257.9,365.95 228.4,389.81 "
                  fill="none" id="MatsimSupplyBuilder-backto-InfrastructureRepository"
                  style="stroke:#181818;stroke-width:1.0;"/>
            <polygon fill="#181818"
                     points="477.66,251.75,470.6556,250.0357,466.3792,255.8419,473.3836,257.5562,477.66,251.75"
                     style="stroke:#181818;stroke-width:1.0;"/>
            <text fill="#000000" font-family="sans-serif" font-size="13" lengthAdjust="spacing" textLength="22.9785"
                  x="381" y="302.5169">has
            </text>
        </g><!--reverse link MatsimSupplyBuilder to RollingStockRepository-->
        <g id="link_MatsimSupplyBuilder_RollingStockRepository">
            <path codeLine="59"
                  d="M502.8928,259.1193 C490.6228,269.1593 487.61,274.46 481,289.45 C465.65,324.24 473.46,368.58 481.91,397.9 "
                  fill="none" id="MatsimSupplyBuilder-backto-RollingStockRepository"
                  style="stroke:#181818;stroke-width:1.0;"/>
            <polygon fill="#181818"
                     points="512.18,251.52,505.0033,252.2239,502.8928,259.1193,510.0695,258.4153,512.18,251.52"
                     style="stroke:#181818;stroke-width:1.0;"/>
            <text fill="#000000" font-family="sans-serif" font-size="13" lengthAdjust="spacing" textLength="22.9785"
                  x="482" y="302.5169">has
            </text>
        </g><!--reverse link MatsimSupplyBuilder to VehicleCircuitsPlanner-->
        <g id="link_MatsimSupplyBuilder_VehicleCircuitsPlanner">
            <path codeLine="60"
                  d="M535.9982,263.041 C531.1082,280.411 531.62,292.01 545,306.45 C560.91,323.61 628.28,305.73 650,314.45 C690.71,330.78 728.62,363.43 754.7,389.76 "
                  fill="none" id="MatsimSupplyBuilder-backto-VehicleCircuitsPlanner"
                  style="stroke:#181818;stroke-width:1.0;"/>
            <polygon fill="#181818"
                     points="539.25,251.49,533.7737,256.1816,535.9982,263.041,541.4744,258.3494,539.25,251.49"
                     style="stroke:#181818;stroke-width:1.0;"/>
            <text fill="#000000" font-family="sans-serif" font-size="13" lengthAdjust="spacing" textLength="22.9785"
                  x="546" y="302.5169">has
            </text>
        </g><!--SRC=[VLJ1Rjim3BtxAtHC5yGV40G6kWuR1dH54HUzgpBZ4fObGQ9RP5l_lPJZj7OZMoU3VE-HJo8TW8IHBGGd5PJWf9TalJ3MG4RM2RBYoHBPLbJeGH5QasMCRMGDmW3zhRqyO0CLCYrNrho09_3YNwQq347SVK1kHhcrxypgAdlBCi5d5iaV1wmP7r4360qd3jni9BnQt_poqZsZActdENZ2nhFMLbPS9CdzA56YQSQa85zWIZgR3Prp-ZZ2VggLVUfxXxhgxOdHMSkgAlacVqg56kcuolFywWBnuAK9IBTe80tOsuuWwYoax_aQq-aVyM6fyodnfzZswZCus9uw_6qENWRodOegUt0sn0S_VZLR0rsOtOfnY9Ni1OVjgsO0tsAWNHyeeMx1KB7SsjvgZQRc6gfPREmHU4mqF1mT3AL6aKbRoJe3-0Qzwf32lPR6NBwsXvhx1v-uQCUCrTdWe7QjjLKoRjNOPMBwMaa1sr6rqzBywSDpytTMOgtK7dxRB2pTLZpBC4FRf7TlaRBviYNB-jFzdCVcUP6yWwtOxVWVGzX2KMHP2fB_BwOjHGwsJaCSki2q52isDxiCfpxdQ3E3kaoQcRgUz0u0]-->
    </g>
</svg>